<svg width="877" height="309" viewBox="0 0 877 309" fill="none" xmlns="http://www.w3.org/2000/svg">
<path d="M336.68 135.723H290.26V106.396H424.19V135.723H377.769V213.887H336.707V135.723H336.68Z" fill="white"/>
<path d="M482.607 213.914L428.241 106.396H474.818L510.967 181.4L544.946 106.396H587.603L537.131 213.914H482.607Z" fill="white"/>
<path d="M667.584 104.358C737.006 104.358 745.971 137.447 745.971 157.686V162.022C745.971 182.105 737.137 215.924 667.584 215.924H661.076C591.367 215.924 582.532 182.105 582.532 162.022V157.686C582.532 137.447 591.367 104.358 661.076 104.358H667.584ZM703.445 158.679C703.445 147.266 696.074 133.242 664.265 133.242C632.455 133.242 625.084 147.266 625.084 158.679V160.403C625.084 171.684 632.455 186.858 664.265 186.858C696.074 186.858 703.445 172.259 703.445 160.69V158.679Z" fill="white"/>
<path d="M875.85 106.395V132.694H797.332V146.143H874.282V172.311H797.332V187.04H877.026V213.913H756.845V106.395H875.876H875.85ZM814.243 99.8926H778.67V77.4854H814.243V99.8926ZM856.613 99.8926H821.17V77.4854H856.613V99.8926Z" fill="white"/>
<path d="M0 1.38379V309C65.3182 277.139 130.636 245.304 195.929 213.443V90.0463C130.636 60.4834 65.3182 30.9467 0 1.38379Z" fill="white"/>
<path d="M143.366 58.2901L97.9905 37.4498V0L143.366 26.9252V58.2639V58.2901ZM195.955 82.4209L150.58 61.6067V30.2419L195.955 55.6524V82.4209Z" fill="white"/>
</svg>
