<svg xmlns="http://www.w3.org/2000/svg" width="119" height="142" viewBox="0 0 119 142" fill="none"><path d="M51.377 135C40.426 135 31.3403 133.682 24.1198 131.045C17.0197 128.408 11.7247 124.813 8.23482 120.258C4.74494 115.584 3 110.431 3 104.798C3 103.479 3.06017 102.041 3.18051 100.483C3.42119 98.9251 3.78222 97.3071 4.26358 95.6292H35.853C35.7327 96.2285 35.6124 96.8876 35.492 97.6067C35.492 98.206 35.492 98.8052 35.492 99.4045C35.492 103 36.9361 105.757 39.8243 107.674C42.8328 109.472 46.9244 110.371 52.099 110.371C56.672 110.371 60.5831 109.592 63.8323 108.034C67.2018 106.356 69.729 104.079 71.4137 101.202C73.2188 98.206 74.1214 94.7903 74.1214 90.9551C74.1214 88.6779 73.64 86.8202 72.6773 85.382C71.8349 83.824 70.5714 82.6854 68.8866 81.9663C67.3221 81.2472 65.517 80.8876 63.4712 80.8876H50.2939L54.2652 58.7753H64.5543C66.7204 58.7753 68.7061 58.4157 70.5112 57.6966C72.4366 56.8577 74.0612 55.779 75.385 54.4607C76.8291 53.0225 77.9121 51.3446 78.6342 49.427C79.3562 47.5094 79.7173 45.4719 79.7173 43.3146C79.7173 41.1573 79.1757 39.2397 78.0926 37.5618C77.1299 35.764 75.6257 34.3258 73.5799 33.2472C71.5341 32.1685 68.8866 31.6292 65.6374 31.6292C62.2678 31.6292 59.3195 32.1685 56.7923 33.2472C54.2652 34.3258 52.2194 35.764 50.6549 37.5618C49.0905 39.3595 48.0676 41.3371 47.5863 43.4944L47.2252 45.2921H16.8994L17.6214 40.7978C18.5841 34.5655 21.2316 28.9326 25.5639 23.8989C30.0165 18.7453 36.0335 14.6704 43.615 11.6742C51.1965 8.55805 60.3424 7 71.0527 7C80.5596 7 88.6225 8.31835 95.2412 10.9551C101.98 13.4719 107.095 16.9476 110.585 21.382C114.195 25.8165 116 30.9101 116 36.6629C116 41.5768 114.917 46.191 112.751 50.5056C110.705 54.8202 107.877 58.4757 104.267 61.4719C100.777 64.4682 96.926 66.6255 92.7141 67.9438L92.5335 68.6629C97.8285 70.7004 101.92 73.8764 104.808 78.191C107.817 82.3858 109.321 87.4195 109.321 93.2921C109.321 102.401 106.734 110.071 101.559 116.303C96.3844 122.416 89.4047 127.09 80.6198 130.326C71.8349 133.442 62.0873 135 51.377 135Z" stroke="url(#paint0_linear_11984_69838)" stroke-width="4"/><defs><linearGradient id="paint0_linear_11984_69838" x1="3" y1="71" x2="116" y2="71" gradientUnits="userSpaceOnUse"><stop stop-color="#6A11CB"/><stop offset="1" stop-color="#2575FC"/></linearGradient></defs></svg>