<svg xmlns="http://www.w3.org/2000/svg" width="126" height="142" viewBox="0 0 126 142" fill="none"><path d="M5 134L6.61503 125.36C7.69172 119.84 9.90491 114.68 13.2546 109.88C16.6043 105.08 20.6718 100.58 25.4571 96.38C30.2423 92.06 35.3267 87.98 40.7101 84.14C46.2132 80.3 51.5966 76.7 56.8604 73.34C62.2439 69.86 67.089 66.5 71.3957 63.26C75.8221 59.9 79.3512 56.66 81.9831 53.54C84.615 50.3 85.931 47.06 85.931 43.82C85.931 41.06 84.9141 38.66 82.8804 36.62C80.8466 34.46 77.4371 33.38 72.6518 33.38C68.9433 33.38 65.6534 34.1 62.7822 35.54C59.911 36.98 57.5782 39.02 55.7837 41.66C53.9893 44.18 52.7929 47.06 52.1948 50.3L51.6564 53.9H19.1764C19.8942 46.34 21.7485 39.68 24.7393 33.92C27.8497 28.16 31.9172 23.36 36.9417 19.52C42.0859 15.68 48.0077 12.8 54.7071 10.88C61.5261 8.96 68.9432 8 76.9586 8C85.931 8 93.7669 9.44 100.466 12.32C107.285 15.08 112.549 18.98 116.258 24.02C120.086 28.94 122 34.64 122 41.12C122 45.68 121.282 49.94 119.847 53.9C118.531 57.86 116.617 61.58 114.104 65.06C111.712 68.42 108.84 71.6 105.491 74.6C102.261 77.6 98.7316 80.48 94.9034 83.24C91.0751 86 87.1273 88.64 83.0598 91.16C78.9923 93.68 74.865 96.2 70.6779 98.72C69.6012 99.32 68.4049 100.1 67.089 101.06C65.8926 102.02 64.8758 102.86 64.0383 103.58H112.669L107.285 134H5Z" stroke="url(#paint0_linear_11984_69837)" stroke-width="4"/><defs><linearGradient id="paint0_linear_11984_69837" x1="5" y1="71" x2="122" y2="71" gradientUnits="userSpaceOnUse"><stop stop-color="#6A11CB"/><stop offset="1" stop-color="#2575FC"/></linearGradient></defs></svg>