<svg xmlns="http://www.w3.org/2000/svg" width="118" height="142" viewBox="0 0 118 142" fill="none"><path d="M48.5752 135C39.8279 135 32.0991 133.742 25.3889 131.225C18.6787 128.708 13.4063 124.933 9.5719 119.899C5.8573 114.865 4 108.693 4 101.382C4 100.064 4.05991 98.7453 4.17974 97.427C4.29956 96.1086 4.4793 94.7303 4.71895 93.2921H36.7124C36.5926 94.1311 36.4728 94.9101 36.3529 95.6292C36.3529 96.3483 36.3529 97.0075 36.3529 97.6067C36.3529 102.041 37.6111 105.337 40.1275 107.494C42.6438 109.652 46.1187 110.73 50.5523 110.73C55.4651 110.73 59.3595 109.652 62.2353 107.494C65.2309 105.217 67.6275 101.742 69.4248 97.0674C71.2222 92.3933 72.78 86.2809 74.098 78.7303C71.8214 80.6479 69.2451 82.3258 66.3693 83.7641C63.4935 85.0824 60.4379 86.1611 57.2026 87C54.0871 87.7191 50.8519 88.0787 47.4967 88.0787C40.1874 88.0787 33.597 86.8202 27.7255 84.3034C21.854 81.7865 17.1808 78.1311 13.7059 73.3371C10.3508 68.5431 8.6732 62.7303 8.6732 55.8989C8.6732 48.3483 10.1111 41.5768 12.9869 35.5843C15.8627 29.4719 19.8769 24.3184 25.0294 20.1236C30.3017 15.809 36.5327 12.573 43.7222 10.4157C51.0316 8.13858 59 7 67.6275 7C77.6928 7 86.1405 8.61798 92.9706 11.8539C99.9205 15.0899 105.133 20.0037 108.608 26.5955C112.203 33.0674 114 41.2172 114 51.0449C114 53.8015 113.82 56.7378 113.461 59.8539C113.221 62.97 112.802 66.206 112.203 69.5618C109.447 85.5019 105.373 98.2659 99.9804 107.854C94.5882 117.442 87.6384 124.393 79.1307 128.708C70.7429 132.903 60.5577 135 48.5752 135ZM58.6405 66.5056C61.6362 66.5056 64.3322 66.0262 66.7288 65.0674C69.2451 64.1086 71.402 62.8502 73.1993 61.2921C75.3562 59.2547 76.9739 56.8577 78.0523 54.1011C79.2505 51.2247 79.8497 47.9888 79.8497 44.3933C79.8497 41.5169 79.3105 39.1199 78.232 37.2023C77.1536 35.2846 75.476 33.8464 73.1993 32.8876C71.0425 31.809 68.3464 31.2697 65.1111 31.2697C62.3551 31.2697 59.8388 31.6292 57.5621 32.3483C55.2854 33.0674 53.3083 34.0861 51.6307 35.4045C49.1144 37.3221 47.1972 39.779 45.8791 42.7753C44.561 45.7715 43.902 49.1873 43.902 53.0225C43.902 55.8989 44.4412 58.3558 45.5196 60.3933C46.7179 62.3109 48.3954 63.809 50.5523 64.8876C52.7091 65.9663 55.4052 66.5056 58.6405 66.5056Z" stroke="url(#paint0_linear_11984_69844)" stroke-width="4"/><defs><linearGradient id="paint0_linear_11984_69844" x1="4" y1="71" x2="114" y2="71" gradientUnits="userSpaceOnUse"><stop stop-color="#6A11CB"/><stop offset="1" stop-color="#2575FC"/></linearGradient></defs></svg>