<svg xmlns="http://www.w3.org/2000/svg" width="118" height="142" viewBox="0 0 118 142" fill="none"><path d="M53.1385 134C42.3172 134 33.1793 132.56 25.7246 129.68C18.27 126.8 12.6189 122.78 8.77134 117.62C4.92378 112.34 3 106.22 3 99.26C3 98.06 3.06012 96.86 3.18035 95.66C3.30059 94.34 3.48094 93.08 3.72142 91.88H35.4638C35.3435 92.48 35.2233 93.08 35.1031 93.68C35.1031 94.16 35.1031 94.7 35.1031 95.3C35.1031 97.94 35.7042 100.34 36.9066 102.5C38.109 104.54 39.9125 106.16 42.3172 107.36C44.8422 108.56 47.9683 109.16 51.6957 109.16C55.1825 109.16 58.3086 108.62 61.0741 107.54C63.8395 106.34 66.1841 104.72 68.1079 102.68C70.1519 100.52 71.715 98.12 72.7971 95.48C73.8792 92.72 74.4203 89.84 74.4203 86.84C74.4203 82.52 73.0376 79.04 70.2721 76.4C67.627 73.64 63.6592 72.26 58.3688 72.26C54.401 72.26 51.1546 72.86 48.6296 74.06C46.1047 75.26 44.1208 76.58 42.6779 78.02C41.3553 79.34 40.2732 80.42 39.4316 81.26L11.657 77.3L29.1514 8H115L109.589 38.6H50.6135L45.744 57.32C46.9463 56.36 48.6296 55.28 50.7939 54.08C52.9581 52.76 55.7236 51.62 59.0902 50.66C62.577 49.7 66.7853 49.22 71.715 49.22C79.5303 49.22 86.2636 50.6 91.9147 53.36C97.686 56.12 102.135 60.08 105.261 65.24C108.507 70.28 110.13 76.34 110.13 83.42C110.13 93.62 107.605 102.5 102.556 110.06C97.5056 117.62 90.6522 123.5 81.9952 127.7C73.4584 131.9 63.8395 134 53.1385 134Z" stroke="url(#paint0_linear_11984_69840)" stroke-width="4"/><defs><linearGradient id="paint0_linear_11984_69840" x1="3" y1="71" x2="115" y2="71" gradientUnits="userSpaceOnUse"><stop stop-color="#6A11CB"/><stop offset="1" stop-color="#2575FC"/></linearGradient></defs></svg>