<svg xmlns="http://www.w3.org/2000/svg" width="231" height="142" viewBox="0 0 231 142" fill="none"><path d="M5 134.84L9.86311 107.155H39.2219L49.1282 51.2447H19.7695L23.5519 30.3908C27.7546 30.1511 32.3175 29.432 37.2406 28.2335C42.1638 27.035 47.147 25.5368 52.1902 23.7391C57.3535 21.9413 62.2767 19.9638 66.9596 17.8065C71.7627 15.5293 76.1455 13.2522 80.1081 10.975H92.1758L75.0648 107.155H103.343L98.4798 134.84H5ZM161.519 135C150.592 135 141.766 133.202 135.042 129.607C128.438 126.011 123.635 120.918 120.633 114.326C117.751 107.734 116.31 100.004 116.31 91.1348C116.31 88.9775 116.37 86.7603 116.49 84.4831C116.73 82.0861 116.97 79.6891 117.21 77.2921C117.571 74.8951 117.991 72.4382 118.471 69.9213C120.272 60.3333 122.614 51.7041 125.496 44.0337C128.498 36.2435 132.34 29.5918 137.023 24.0787C141.826 18.5655 147.77 14.3708 154.854 11.4944C162.059 8.49813 170.765 7 180.971 7C192.018 7 200.784 8.79775 207.268 12.3933C213.872 15.8689 218.615 20.8427 221.497 27.3146C224.499 33.7865 226 41.397 226 50.1461C226 52.3034 225.88 54.5805 225.64 56.9775C225.52 59.2547 225.28 61.6517 224.919 64.1685C224.679 66.5655 224.319 69.0225 223.839 71.5393C222.037 81.1273 219.636 89.8165 216.634 97.6068C213.752 105.397 209.97 112.109 205.287 117.742C200.604 123.255 194.72 127.509 187.635 130.506C180.551 133.502 171.845 135 161.519 135ZM164.22 110.73C168.063 110.73 171.245 110.011 173.767 108.573C176.288 107.015 178.39 104.438 180.071 100.843C181.872 97.2472 183.493 92.2734 184.934 85.9213C186.375 79.5693 187.996 71.5993 189.797 62.0112C190.037 60.573 190.277 59.1948 190.517 57.8764C190.757 56.4382 190.938 55.1199 191.058 53.9214C191.178 52.603 191.238 51.4045 191.238 50.3258C191.358 49.1273 191.418 48.0487 191.418 47.0899C191.418 41.4569 190.337 37.4419 188.176 35.0449C186.134 32.5281 182.832 31.2697 178.269 31.2697C174.307 31.2697 171.065 32.0487 168.543 33.6067C166.022 35.0449 163.86 37.6217 162.059 41.3371C160.378 44.9326 158.757 49.8464 157.196 56.0787C155.755 62.3109 154.134 70.221 152.333 79.809C152.093 81.2472 151.853 82.6255 151.612 83.9438C151.492 85.2622 151.372 86.5206 151.252 87.7191C151.132 88.9176 151.012 90.1161 150.892 91.3146C150.892 92.3933 150.892 93.412 150.892 94.3708C150.892 100.004 151.913 104.139 153.954 106.775C156.115 109.412 159.537 110.73 164.22 110.73Z" fill="url(#paint0_linear_11984_69953)" stroke="url(#paint1_linear_11984_69953)" stroke-width="4"/><defs><linearGradient id="paint0_linear_11984_69953" x1="5" y1="71" x2="226" y2="71" gradientUnits="userSpaceOnUse"><stop stop-color="#6A11CB"/><stop offset="1" stop-color="#2575FC"/></linearGradient><linearGradient id="paint1_linear_11984_69953" x1="5" y1="71" x2="226" y2="71" gradientUnits="userSpaceOnUse"><stop stop-color="#6A11CB"/><stop offset="1" stop-color="#2575FC"/></linearGradient></defs></svg>