<svg xmlns="http://www.w3.org/2000/svg" width="115" height="133" viewBox="0 0 115 133" fill="none"><path d="M48.44 130.16C38.36 130.16 29.84 128.54 22.88 125.3C16.04 122.06 10.82 117.2 7.22 110.72C3.74 104.12 2 95.9 2 86.06C2 83.3 2.12 80.36 2.36 77.24C2.72 74.12 3.2 70.88 3.8 67.52C6.68 51.44 10.76 38.66 16.04 29.18C21.44 19.58 28.34 12.68 36.74 8.48C45.26 4.16 55.52 2 67.52 2C76.28 2 84.02 3.26 90.74 5.78C97.46 8.3 102.68 12.08 106.4 17.12C110.24 22.04 112.16 28.22 112.16 35.66C112.16 36.86 112.1 38.18 111.98 39.62C111.86 40.94 111.68 42.32 111.44 43.76H79.4C79.52 42.92 79.58 42.14 79.58 41.42C79.7 40.7 79.76 40.04 79.76 39.44C79.76 35 78.5 31.7 75.98 29.54C73.46 27.38 69.98 26.3 65.54 26.3C60.74 26.3 56.84 27.38 53.84 29.54C50.84 31.7 48.44 35.18 46.64 39.98C44.84 44.66 43.28 50.78 41.96 58.34C44.24 56.42 46.82 54.8 49.7 53.48C52.58 52.04 55.64 50.96 58.88 50.24C62.12 49.4 65.36 48.98 68.6 48.98C76.04 48.98 82.64 50.24 88.4 52.76C94.28 55.28 98.9 58.94 102.26 63.74C105.74 68.42 107.48 74.24 107.48 81.2C107.48 88.76 106.04 95.6 103.16 101.72C100.28 107.72 96.2 112.88 90.92 117.2C85.76 121.4 79.52 124.64 72.2 126.92C65 129.08 57.08 130.16 48.44 130.16ZM50.96 105.86C53.72 105.86 56.24 105.5 58.52 104.78C60.8 103.94 62.78 102.92 64.46 101.72C66.98 99.8 68.9 97.34 70.22 94.34C71.54 91.22 72.2 87.8 72.2 84.08C72.2 81.2 71.66 78.74 70.58 76.7C69.5 74.66 67.82 73.16 65.54 72.2C63.38 71.12 60.68 70.58 57.44 70.58C54.44 70.58 51.68 71.06 49.16 72.02C46.76 72.86 44.66 74.12 42.86 75.8C40.7 77.72 39.02 80.12 37.82 83C36.74 85.88 36.2 89.12 36.2 92.72C36.2 95.48 36.74 97.88 37.82 99.92C38.9 101.84 40.52 103.34 42.68 104.42C44.96 105.38 47.72 105.86 50.96 105.86Z" fill="url(#paint0_linear_11984_69858)" stroke="url(#paint1_linear_11984_69858)" stroke-width="4"/><defs><linearGradient id="paint0_linear_11984_69858" x1="2" y1="66.08" x2="112.16" y2="66.08" gradientUnits="userSpaceOnUse"><stop stop-color="#6A11CB"/><stop offset="1" stop-color="#2575FC"/></linearGradient><linearGradient id="paint1_linear_11984_69858" x1="2" y1="66.08" x2="112.16" y2="66.08" gradientUnits="userSpaceOnUse"><stop stop-color="#6A11CB"/><stop offset="1" stop-color="#2575FC"/></linearGradient></defs></svg>