<svg xmlns="http://www.w3.org/2000/svg" width="123" height="130" viewBox="0 0 123 130" fill="none"><path d="M59.1203 128L63.6203 102.62H3.32031L8.00031 75.8C12.9203 70.04 18.1403 63.26 23.6603 55.46C29.3003 47.54 34.7603 39.02 40.0403 29.9C45.3203 20.66 49.9403 11.36 53.9003 2H90.9803C89.7803 5.96 87.6203 10.46 84.5003 15.5C81.5003 20.54 77.9003 25.88 73.7003 31.52C69.6203 37.16 65.2403 42.74 60.5603 48.26C55.8803 53.66 51.2003 58.82 46.5203 63.74C41.9603 68.54 37.7003 72.68 33.7403 76.16H68.3003L72.4403 52.04C74.3603 49.88 76.5803 47.18 79.1003 43.94C81.6203 40.58 84.1403 37.1 86.6603 33.5C89.1803 29.9 91.4603 26.36 93.5003 22.88C95.5403 19.4 97.1003 16.4 98.1803 13.88H113.48L102.5 76.16H119.78L115.1 102.62H97.8203L93.3203 128H59.1203Z" fill="url(#paint0_linear_11984_69854)" stroke="url(#paint1_linear_11984_69854)" stroke-width="4"/><defs><linearGradient id="paint0_linear_11984_69854" x1="3.32031" y1="65" x2="119.78" y2="65" gradientUnits="userSpaceOnUse"><stop stop-color="#6A11CB"/><stop offset="1" stop-color="#2575FC"/></linearGradient><linearGradient id="paint1_linear_11984_69854" x1="3.32031" y1="65" x2="119.78" y2="65" gradientUnits="userSpaceOnUse"><stop stop-color="#6A11CB"/><stop offset="1" stop-color="#2575FC"/></linearGradient></defs></svg>