<svg xmlns="http://www.w3.org/2000/svg" width="116" height="128" viewBox="0 0 116 128" fill="none"><path d="M5.32016 125.84C6.88016 117.32 9.34016 108.92 12.7002 100.64C16.0602 92.36 20.1402 84.32 24.9402 76.52C29.8602 68.6 35.3202 61.04 41.3202 53.84C47.3202 46.52 53.6802 39.56 60.4002 32.96H3.16016L8.74016 2H113.14L110.26 18.38C104.74 24.02 99.3402 29.84 94.0602 35.84C88.7802 41.72 83.8002 47.84 79.1202 54.2C74.5602 60.44 70.3602 66.86 66.5202 73.46C62.8002 80.06 59.5602 86.84 56.8002 93.8C54.0402 100.76 52.0002 107.9 50.6802 115.22C50.3202 117.02 49.9602 118.82 49.6002 120.62C49.3602 122.3 49.0602 124.04 48.7002 125.84H5.32016Z" fill="url(#paint0_linear_11984_69860)" stroke="url(#paint1_linear_11984_69860)" stroke-width="4"/><defs><linearGradient id="paint0_linear_11984_69860" x1="3.16016" y1="63.92" x2="113.14" y2="63.92" gradientUnits="userSpaceOnUse"><stop stop-color="#6A11CB"/><stop offset="1" stop-color="#2575FC"/></linearGradient><linearGradient id="paint1_linear_11984_69860" x1="3.16016" y1="63.92" x2="113.14" y2="63.92" gradientUnits="userSpaceOnUse"><stop stop-color="#6A11CB"/><stop offset="1" stop-color="#2575FC"/></linearGradient></defs></svg>