<svg xmlns="http://www.w3.org/2000/svg" width="116" height="133" viewBox="0 0 116 133" fill="none"><path d="M50.2006 130.16C40.4806 130.16 32.0206 128.96 24.8206 126.56C17.6206 124.16 12.0406 120.68 8.08063 116.12C4.12063 111.44 2.14062 105.8 2.14062 99.2C2.14062 93.68 3.22062 88.76 5.38063 84.44C7.54063 80 10.5406 76.16 14.3806 72.92C18.2206 69.56 22.5406 66.98 27.3406 65.18C23.6206 62.3 20.8606 59 19.0606 55.28C17.2606 51.44 16.3606 47.42 16.3606 43.22C16.3606 36.62 17.7406 30.8 20.5006 25.76C23.3806 20.6 27.2806 16.28 32.2006 12.8C37.2406 9.2 42.9406 6.5 49.3006 4.7C55.6606 2.9 62.4406 2 69.6406 2C77.8006 2 85.1806 3.26 91.7806 5.78C98.3806 8.18 103.661 11.72 107.621 16.4C111.581 21.08 113.561 26.78 113.561 33.5C113.561 38.06 112.781 42.32 111.221 46.28C109.661 50.12 107.381 53.66 104.381 56.9C101.381 60.02 97.6606 62.78 93.2206 65.18C97.5406 67.34 101.141 70.4 104.021 74.36C107.021 78.32 108.521 83.24 108.521 89.12C108.521 98.48 105.821 106.22 100.421 112.34C95.1406 118.34 88.0606 122.84 79.1806 125.84C70.4206 128.72 60.7606 130.16 50.2006 130.16ZM52.9006 105.86C54.9406 105.86 56.8006 105.68 58.4806 105.32C60.2806 104.84 61.9006 104.24 63.3406 103.52C64.9006 102.68 66.2806 101.72 67.4806 100.64C69.1606 99.08 70.4806 97.28 71.4406 95.24C72.4006 93.08 72.8806 90.74 72.8806 88.22C72.8806 84.26 71.4406 81.32 68.5606 79.4C65.6806 77.36 62.2006 76.34 58.1206 76.34C56.3206 76.34 54.5206 76.58 52.7206 77.06C51.0406 77.42 49.4206 77.96 47.8606 78.68C46.4206 79.4 45.1006 80.36 43.9006 81.56C42.3406 83.12 41.0806 84.98 40.1206 87.14C39.1606 89.3 38.6806 91.64 38.6806 94.16C38.6806 98 39.9406 100.94 42.4606 102.98C45.1006 104.9 48.5806 105.86 52.9006 105.86ZM62.0806 53.48C63.7606 53.48 65.3806 53.36 66.9406 53.12C68.5006 52.76 69.9406 52.34 71.2606 51.86C72.7006 51.26 74.0206 50.6 75.2206 49.88C77.2606 48.56 78.8806 46.88 80.0806 44.84C81.2806 42.68 81.8806 40.16 81.8806 37.28C81.8806 33.44 80.5006 30.68 77.7406 29C74.9806 27.2 71.3806 26.3 66.9406 26.3C65.0206 26.3 63.2206 26.48 61.5406 26.84C59.8606 27.2 58.3006 27.68 56.8606 28.28C55.4206 28.88 54.1606 29.66 53.0806 30.62C51.4006 32.06 50.0806 33.8 49.1206 35.84C48.1606 37.88 47.6806 40.22 47.6806 42.86C47.6806 46.58 49.0606 49.28 51.8206 50.96C54.5806 52.64 58.0006 53.48 62.0806 53.48Z" fill="url(#paint0_linear_11984_69862)" stroke="url(#paint1_linear_11984_69862)" stroke-width="4"/><defs><linearGradient id="paint0_linear_11984_69862" x1="2.14062" y1="66.08" x2="113.561" y2="66.08" gradientUnits="userSpaceOnUse"><stop stop-color="#6A11CB"/><stop offset="1" stop-color="#2575FC"/></linearGradient><linearGradient id="paint1_linear_11984_69862" x1="2.14062" y1="66.08" x2="113.561" y2="66.08" gradientUnits="userSpaceOnUse"><stop stop-color="#6A11CB"/><stop offset="1" stop-color="#2575FC"/></linearGradient></defs></svg>