<svg xmlns="http://www.w3.org/2000/svg" width="24" height="24" viewBox="0 0 24 24" fill="none"><path d="M10.6465 18.646C12.4215 18.6456 14.1453 18.0514 15.5435 16.958L19.9395 21.354L21.3535 19.94L16.9575 15.544C18.0515 14.1457 18.6461 12.4214 18.6465 10.646C18.6465 6.235 15.0575 2.646 10.6465 2.646C6.23548 2.646 2.64648 6.235 2.64648 10.646C2.64648 15.057 6.23548 18.646 10.6465 18.646ZM10.6465 4.646C13.9555 4.646 16.6465 7.337 16.6465 10.646C16.6465 13.955 13.9555 16.646 10.6465 16.646C7.33748 16.646 4.64648 13.955 4.64648 10.646C4.64648 7.337 7.33748 4.646 10.6465 4.646Z" fill="rgba(255, 255, 255, 1)"/></svg>