<svg xmlns="http://www.w3.org/2000/svg" width="24" height="24" viewBox="0 0 24 24" fill="none"><path d="M13.0044 7.05V4C13.0044 3.73478 13.1098 3.48043 13.2973 3.29289C13.4849 3.10536 13.7392 3 14.0044 3C14.2668 3.0011 14.5182 3.10526 14.7044 3.29L21.7044 10.29C21.7982 10.383 21.8726 10.4936 21.9233 10.6154C21.9741 10.7373 22.0002 10.868 22.0002 11C22.0002 11.132 21.9741 11.2627 21.9233 11.3846C21.8726 11.5064 21.7982 11.617 21.7044 11.71L14.7044 18.71C14.5641 18.8476 14.3862 18.9408 14.1932 18.9779C14.0001 19.015 13.8004 18.9944 13.6191 18.9186C13.4377 18.8429 13.2826 18.7153 13.1733 18.5519C13.064 18.3886 13.0053 18.1966 13.0044 18V14.9H12.1544C10.5745 14.8764 9.0084 15.197 7.56478 15.8393C6.12115 16.4817 4.83461 17.4306 3.79445 18.62C3.66909 18.7869 3.49467 18.9104 3.29561 18.9731C3.09656 19.0359 2.88285 19.0348 2.68445 18.97C2.48254 18.9019 2.30768 18.771 2.18536 18.5965C2.06304 18.422 1.99965 18.213 2.00445 18C2.00445 8.88 10.0844 7.32 13.0044 7.05ZM12.1544 12.88C12.8233 12.8779 13.4915 12.9213 14.1544 13.01C14.3912 13.0459 14.6072 13.1656 14.7632 13.3473C14.9191 13.5289 15.0048 13.7606 15.0044 14V15.59L19.5844 11L15.0044 6.41V8C15.0044 8.26522 14.8991 8.51957 14.7116 8.70711C14.524 8.89464 14.2697 9 14.0044 9C13.0944 9 5.89445 9.2 4.33445 15.43C6.59875 13.7606 9.34128 12.8663 12.1544 12.88Z" fill="rgba(255, 255, 255, 1)"/></svg>